<svg xmlns="http://www.w3.org/2000/svg" viewBox="0 0 16 16" fill="none">
  <path
    d="M6.635 1.024a1 1 0 0 1 1.73 0l.521.91a1 1 0 0 0 1.022.485l1.025-.16a1 1 0 0 1 .999 1l-.16 1.025a1 1 0 0 0 .485 1.022l.91.521a1 1 0 0 1 0 1.73l-.91.521a1 1 0 0 0-.485 1.022l.16 1.025a1 1 0 0 1-.999 1l-1.025-.16a1 1 0 0 0-1.022.485l-.521.91a1 1 0 0 1-1.73 0l-.521-.91a1 1 0 0 0-1.022-.485l-1.025.16a1 1 0 0 1-.999-1l.16-1.025a1 1 0 0 0-.485-1.022l-.91-.521a1 1 0 0 1 0-1.73l.91-.521a1 1 0 0 0 .485-1.022l-.16-1.025a1 1 0 0 1 .999-1l1.025.16a1 1 0 0 0 1.022-.485l.521-.91Z"
    stroke="#f5f5f5"
    stroke-width="1.2"
    stroke-linejoin="round"
  />
  <circle cx="8" cy="8" r="2.1" stroke="#f5f5f5" stroke-width="1.2" />
</svg>
